<?xml version="1.0" encoding="iso-8859-1"?>
<!-- Generator: Adobe Illustrator 19.0.0, SVG Export Plug-In . SVG Version: 6.00 Build 0)  -->
<svg version="1.1" id="Capa_1" xmlns="http://www.w3.org/2000/svg" xmlns:xlink="http://www.w3.org/1999/xlink" x="0px" y="0px"
	 viewBox="0 0 511.999 511.999" style="enable-background:new 0 0 511.999 511.999;" xml:space="preserve">
<rect x="211.494" y="224.632" transform="matrix(0.7071 0.7071 -0.7071 0.7071 253.4871 -112.1194)" style="fill:#FDD844;" width="101.179" height="50.589"/>
<path style="fill:#80D8FF;" d="M279.967,303.591L93.95,489.608c-19.756,19.756-51.788,19.756-71.545,0l0,0
	c-19.756-19.756-19.756-51.788,0-71.545l186.017-186.017L279.967,303.591z"/>
<path style="fill:#D8D7DA;" d="M353.659,22.419L276.39,99.688c-19.756,19.756-19.756,51.788,0,71.545l10.732,10.732l-28.618,28.618
	l42.927,42.927l28.618-28.618l10.732,10.732c19.756,19.756,51.788,19.756,71.545,0l77.269-77.269
	c19.756-19.756,19.756-51.788,0-71.545l-64.391-64.391C405.448,2.663,373.415,2.663,353.659,22.419z M375.122,43.883
	c7.902-7.902,20.716-7.902,28.618,0l16.455,16.455l-17.887,17.887l31.48,31.48l17.887-17.887l16.455,16.455
	c7.902,7.902,7.902,20.716,0,28.618l-77.269,77.269c-7.902,7.902-20.716,7.903-28.618,0l-16.455-16.455l17.887-17.887l-31.48-31.48
	l-17.887,17.887l-16.455-16.455c-7.902-7.902-7.902-20.716,0-28.618L375.122,43.883z"/>
<rect x="265.396" y="268.428" transform="matrix(-0.7071 0.7071 -0.7071 -0.7071 693.2021 269.9575)" style="fill:#FDAB08;" width="50.589" height="20.236"/>
<path style="fill:#40C4FF;" d="M79.642,475.299l186.017-186.017l14.309,14.309L93.95,489.608c-19.756,19.756-51.788,19.756-71.545,0
	l0,0c-2.451-2.451-4.595-5.09-6.437-7.872C35.611,494.75,62.336,492.605,79.642,475.299z"/>
<path style="fill:#ACABB1;" d="M401.594,224.891l77.269-77.269c19.756-19.756,19.756-51.788,0-71.545l10.732,10.732
	c19.756,19.756,19.756,51.788,0,71.545l-77.269,77.269c-19.756,19.756-51.788,19.756-71.545,0l-10.732-10.732
	C349.806,244.649,381.837,244.649,401.594,224.891z"/>
<g>
	<path style="fill:#FFFFFF;" d="M38.503,473.51c-5.249-5.249-8.14-12.237-8.14-19.675c0-7.438,2.891-14.424,8.141-19.674
		l14.31-14.309l10.73,10.731l-14.309,14.309c-2.383,2.384-3.695,5.56-3.695,8.943c0,3.384,1.312,6.56,3.694,8.943
		c2.383,2.383,5.559,3.695,8.943,3.695c0.6,0,1.202-0.042,1.792-0.126l2.127,15.028c-1.292,0.182-2.61,0.275-3.919,0.275
		C50.74,481.65,43.753,478.759,38.503,473.51z M63.544,409.119l10.731-10.731l10.732,10.731l-10.731,10.732L63.544,409.119z"/>
	<path style="fill:#FFFFFF;" d="M121.495,408.404l10.731-10.731l10.732,10.731l-10.731,10.731L121.495,408.404z M142.958,386.941
		l21.464-21.463l10.732,10.731l-21.464,21.463L142.958,386.941z"/>
	
		<rect x="289.113" y="200.136" transform="matrix(0.7071 -0.7071 0.7071 0.7071 -57.7591 276.0068)" style="fill:#FFFFFF;" width="30.354" height="15.177"/>
	<path style="fill:#FFFFFF;" d="M148.682,323.982l10.731-10.731l10.732,10.731l-10.731,10.731L148.682,323.982z M170.145,302.517
		l37.562-37.561l30.408,30.407l-10.732,10.731l-19.674-19.675l-26.83,26.83L170.145,302.517z"/>
</g>
<path d="M0,453.835c0,15.54,6.051,30.15,17.04,41.139c11.342,11.341,26.241,17.012,41.139,17.012s29.796-5.67,41.139-17.012
	l227.155-227.155l-14.309-14.309l17.887-17.887l5.366,5.366c22.684,22.684,59.593,22.684,82.276,0l77.268-77.269
	c10.988-10.988,17.04-25.598,17.04-41.139s-6.052-30.15-17.04-41.138l-64.391-64.391c-10.988-10.988-25.597-17.04-41.138-17.04
	s-30.15,6.052-41.139,17.04l-77.269,77.268c-22.684,22.683-22.684,59.593,0,82.276l5.366,5.366l-17.885,17.888l-14.309-14.309
	L17.04,412.697C6.051,423.685,0,438.296,0,453.835z M301.432,242.778l-32.195-32.195l28.619-28.618l-16.099-16.098
	c-16.766-16.766-16.766-44.048,0-60.813l77.269-77.268c8.122-8.122,18.921-12.595,30.407-12.595
	c11.486,0,22.284,4.472,30.407,12.595l64.391,64.391c8.122,8.122,12.595,18.921,12.595,30.407c0,11.486-4.472,22.285-12.595,30.407
	l-77.268,77.269c-16.766,16.766-44.047,16.766-60.813,0L330.05,214.16L301.432,242.778z M279.967,292.86l-60.813-60.814
	l25.041-25.041l0,0l0,0l60.813,60.813l0,0L279.967,292.86z M15.177,453.835c0-11.486,4.473-22.285,12.595-30.407l180.65-180.65
	l60.814,60.813L88.585,484.242c-16.765,16.765-44.047,16.765-60.813,0C19.65,476.12,15.177,465.322,15.177,453.835z"/>
<path d="M292.488,155.135l21.82,21.821l17.887-17.887l20.748,20.748l-17.887,17.887l21.821,21.82
	c5.255,5.255,12.243,8.15,19.674,8.15c7.433,0,14.419-2.894,19.674-8.15l77.269-77.268c10.848-10.85,10.848-28.501,0-39.35
	l-21.821-21.82l-17.887,17.887L413.04,78.225l17.887-17.887l-21.82-21.821c-10.849-10.85-28.5-10.85-39.35,0l-77.268,77.269
	c-5.255,5.255-8.15,12.243-8.15,19.674C284.338,142.892,287.232,149.88,292.488,155.135z M299.515,135.46
	c0-3.378,1.315-6.554,3.704-8.943l77.268-77.269c4.931-4.93,12.955-4.932,17.887,0l11.089,11.089l-17.887,17.887l42.211,42.211
	l17.887-17.887l11.089,11.089c4.931,4.932,4.931,12.955,0,17.887l-77.269,77.268c-2.389,2.389-5.565,3.704-8.943,3.704
	s-6.554-1.315-8.943-3.704l-11.089-11.089l17.887-17.887l-42.211-42.211l-17.887,17.887l-11.089-11.089
	C300.831,142.015,299.515,138.839,299.515,135.46z"/>
<rect x="375.405" y="121.437" transform="matrix(-0.7071 0.7071 -0.7071 -0.7071 745.0458 -50.5575)" width="15.177" height="15.177"/>
<rect x="396.864" y="142.897" transform="matrix(-0.7071 0.7071 -0.7071 -0.7071 796.8522 -29.0959)" width="15.177" height="15.177"/>
<rect x="353.932" y="99.967" transform="matrix(-0.7071 0.7071 -0.7071 -0.7071 693.2061 -72.0254)" width="15.177" height="15.177"/>
<g>
</g>
<g>
</g>
<g>
</g>
<g>
</g>
<g>
</g>
<g>
</g>
<g>
</g>
<g>
</g>
<g>
</g>
<g>
</g>
<g>
</g>
<g>
</g>
<g>
</g>
<g>
</g>
<g>
</g>
</svg>
