<?xml version="1.0"?>
<svg xmlns="http://www.w3.org/2000/svg" xmlns:xlink="http://www.w3.org/1999/xlink" version="1.1" id="Layer_1" x="0px" y="0px" viewBox="0 0 512 512" style="enable-background:new 0 0 512 512;" xml:space="preserve" width="512px" height="512px" class=""><g><path style="fill:#FFA834;" d="M72.588,456.607c-4.953,0-9.774-1.112-14.333-3.306c-8.381-4.034-14.517-11.154-17.276-20.046  c-0.45-1.462-0.792-2.913-1.021-4.32c-2.588-15.364,6.065-30.652,20.577-36.334c13.388-5.242,26.692-10.897,39.542-16.807  c0.105-0.052,0.231-0.111,0.38-0.176l6.676-3.073l-0.042-0.028l0.392-0.189c-6.247-4.219-10.132-7.001-10.178-7.035  C18.367,306.648,8.08,240.754,13.344,195.796c5.26-44.987,28.406-83.758,65.174-109.17C107.603,66.515,144.106,55.44,181.3,55.44  c3.746,0,7.499,0.108,11.157,0.32c21.898,1.282,42.645,6.28,61.668,14.856l2.25,1.024c3.321-1.701,6.661-3.223,9.992-4.555  l-0.204-0.099l4.55-1.533c0.828-0.29,1.655-0.569,2.48-0.835c14.673-4.941,30.266-7.921,46.346-8.857  c3.696-0.214,7.442-0.323,11.138-0.323c37.203,0,73.713,11.076,102.803,31.191c36.768,25.412,59.913,64.183,65.173,109.17  c4.604,39.367-2.574,97.74-62.915,152.273c-7.23,6.544-15.168,12.967-23.592,19.089c-2.393,2.089-5.778,4.54-10.101,7.313  c2.43,1.082,4.84,2.134,7.205,3.146l0.096,0.044c11.032,5.179,22.307,10.115,33.512,14.67c15.963,6.507,24.336,24.437,19.065,40.823  c-1.143,3.581-2.849,6.886-5.069,9.816c-3.191,4.273-7.502,7.763-12.453,10.074c-4.458,2.081-9.165,3.138-13.988,3.138l0,0  c-4.26,0-8.46-0.83-12.486-2.467c-20.492-8.341-51.754-22.165-84.32-40.664c-0.939-0.543-1.851-1.08-2.758-1.617  c-8.752,4.072-14.65,6.711-15.325,7.012l-0.149,0.062c-9.833,3.804-19.73,7.3-29.418,10.392  c-12.401,3.958-20.414,5.974-21.895,6.337l-3.869,0.951h-8.389l-3.869-0.95c-0.072-0.017-9.537-2.315-24.51-7.186  c-9.358-3.048-18.909-6.469-28.387-10.168l0.325-0.831v-0.075l-0.35,0.896l-1.351-0.526c-5.054-1.159-10.943-3.138-17.529-5.887  l-0.654,0.396c-35.022,19.419-68.721,33.803-90.825,42.449C80.755,455.833,76.695,456.607,72.588,456.607z M244.675,366.682  c5.53,1.922,9.542,3.232,11.183,3.762c3.612-0.919,7.419-2.016,11.376-3.277c-3.765-3.089-7.448-6.207-11.008-9.321  c-4.504,4.087-7.998,6.768-10.633,8.162C245.292,366.229,244.986,366.453,244.675,366.682z M299.642,311.329  c10.426,9.106,22.052,17.943,34.616,26.312c8.226-4.431,13.368-7.485,13.423-7.518l0.691-0.404c1.184-0.694,2.361-1.382,3.523-2.077  c59.229-35.495,86.482-77.268,81.001-124.157c-6.573-56.218-57.719-81.823-102.459-81.823c-0.616,0-1.234,0.004-1.852,0.014  l-0.989,0.021c-0.055,0.001-4.744,0.112-11.904,1.289c1.366,1.897,2.695,3.822,3.976,5.757l0.097,0.157  c12.252,21.218,18.706,45.632,19.181,72.564c0.02,1.071,0.031,2.166,0.031,3.25c0,32.938-10.43,65.133-31.004,95.709l0.189,0.867  l-0.956,1.144C307.174,302.474,304.216,306.01,299.642,311.329z M181.493,121.655c-44.707,0-95.818,25.607-102.392,81.83  c-5.48,46.888,21.773,88.662,81.003,124.158l1.115,0.666l0.094,0.067c3.479,2.486,7.599,5.086,12.265,7.741  c1.025-0.726,1.974-1.421,2.835-2.075l0.083-0.063l0.087-0.058c8.154-5.36,16.073-10.975,23.538-16.689l0.005-0.004  c0.667-0.567,4.128-3.523,9.152-8.043c-1.25-1.623-1.956-2.601-2.123-2.835c-22.666-32.431-34.135-66.604-34.135-101.634  c0-26.578,5.738-50.784,17.053-71.943l0.861-1.608h0.208c1.156-1.679,3.36-4.785,6.509-8.798c-2.95-0.263-5.97-0.429-9.029-0.498  l-0.113-0.004C186.186,121.725,183.826,121.655,181.493,121.655z M249.904,161.852c-1.805,3.099-3.399,6.373-4.736,9.731  c-3.937,9.859-5.933,21.005-5.933,33.133c0,15.668,4.129,31.585,12.273,47.309l0.056,0.108l0.047,0.112  c0.344,0.818,1.576,3.614,4.024,7.891c2.37-3.421,4.19-6.503,5.435-9.206l-0.26-0.502l0.703-1.39  c7.466-14.754,11.251-29.665,11.251-44.321c0-17.689-4.219-33.136-12.537-45.912l-0.138-0.212l-0.102-0.231  c-0.393-0.901-1.354-2.927-3.073-5.563C254.347,155.651,251.998,158.686,249.904,161.852z" data-original="#FFA834" class=""/><g>
	<path style="fill:#FCC062;" d="M335.934,205.62c0,32.646-10.442,64.53-31.063,94.862c-5.023-4.506-9.397-8.758-13.162-12.675   c-16.49-17.13-24.487-30.718-27.48-36.492c7.682-15.181,11.579-30.545,11.579-45.696c0-18.307-4.394-34.31-13.03-47.573   c-2.557-5.855-18.743-37.09-74.09-38.318c-2.395-0.142-4.81-0.213-7.195-0.213c-46.01,0-98.627,26.456-105.416,84.522   c-5.632,48.182,22.112,90.955,82.462,127.122c0.335,0.203,0.67,0.396,1.005,0.599c-17.099,10.797-42.235,23.239-55.509,29.612   c-47.035-51.287-53.429-105.152-49.42-143.714c4.587-44.103,24.751-82.117,56.798-107.03c25.644-19.93,57.224-30.647,89.839-30.647   c3.247,0,6.505,0.101,9.762,0.315c19.129,1.258,37.253,6.17,53.875,14.603c0,0,2.101,1.066,2.111,1.066   c40.439,20.519,61.79,63.262,68.904,106.461C335.923,203.478,335.934,204.554,335.934,205.62z" data-original="#FCC062" class=""/>
	<path style="fill:#FCC062;" d="M467.115,295.65c-7.56,17.109-18.033,32.798-30.332,46.843c-1.055,1.208-2.09,2.293-3.085,3.318   c-7.063,6.393-14.857,12.725-23.452,18.966c-23.959-10.473-44.133-21.382-61.009-32.037c1.421-0.832,2.831-1.654,4.222-2.486   c60.349-36.167,88.094-78.94,82.462-127.122c-6.728-57.549-58.787-85.618-108.379-84.481   c-13.213-19.068-27.846-32.727-40.196-42.093c5.358-0.812,10.797-1.38,16.308-1.695c40.541-2.354,80.331,8.413,112.033,30.332   c36.045,24.913,58.726,62.927,63.881,107.03C482.885,240.608,478.674,269.489,467.115,295.65z" data-original="#FCC062" class=""/>
	<path style="fill:#FCC062;" d="M459.027,432.221c-1.045,3.278-2.598,6.271-4.597,8.91l-0.578-0.183   c-21.696-7.215-54.809-19.169-89.332-35.183c-89.89-42.479-132.237-90.499-133.495-91.95l-0.041-0.041   c-23.675-27.663-35.68-56.848-35.68-86.744c0-22.66,5.967-43.25,17.759-61.253c11.883,0.548,21.503,2.314,29.277,4.678   c-4.09,10.239-6.15,21.706-6.15,34.259c0,16.166,4.242,32.544,12.614,48.71c0.487,1.157,2.03,4.607,5.115,9.813l1.664,3.197   l0.132-0.244c14.542,23.147,54.971,72.588,152.34,114.224c11,5.165,22.325,10.128,33.661,14.735   C456.206,401.056,463.817,417.334,459.027,432.221z" data-original="#FCC062" class=""/>
	<path style="fill:#FCC062;" d="M285.032,426c-12.908,4.12-21.077,6.129-21.696,6.282l-3.511,0.863h-7.652l-3.511-0.863   c-0.68-0.162-9.914-2.446-24.294-7.124c11.264-7.398,22.691-15.191,31.387-21.788C264.482,410.667,274.224,418.277,285.032,426z" data-original="#FCC062" class=""/>
	<path style="fill:#FCC062;" d="M225.707,376.214c-23.097,15.557-49.654,31.732-51.703,32.981   c-34.828,19.311-68.407,33.65-90.458,42.276c-7.854,3.075-16.358,2.75-23.969-0.913c-7.611-3.663-13.182-10.128-15.689-18.205   c-0.396-1.289-0.71-2.598-0.923-3.907c3.176-3.948,7.378-7.134,12.38-9.092c13.426-5.257,26.811-10.95,39.759-16.906   c0.071-0.03,0.183-0.091,0.345-0.162l11.518-5.297l-0.132-0.091c17.272-8.331,49.126-24.355,65.129-36.522   c8.372-5.51,16.318-11.142,23.716-16.805C201.058,350.337,210.942,361.967,225.707,376.214z" data-original="#FCC062" class=""/>
</g><path d="M510.754,194.387c-5.671-48.512-30.654-90.339-70.346-117.779c-34.483-23.838-77.661-35.564-121.572-33.004  c-22.18,1.292-43.302,6.181-62.838,14.542c-19.536-8.36-40.657-13.25-62.839-14.542c-43.911-2.554-87.085,9.165-121.572,33.004  c-39.691,27.44-64.673,69.267-70.344,117.779c-5.501,47.068,4.733,114.874,82.103,175.57c-8.979,3.937-18.103,7.724-27.254,11.307  c-21.991,8.61-33.74,33.029-26.744,55.593c3.715,11.984,12.328,21.976,23.63,27.418c6.172,2.971,12.903,4.467,19.644,4.467  c5.587,0,11.183-1.028,16.467-3.096c21.824-8.538,54.733-22.563,89.164-41.413c36.732,15.423,65.556,22.535,66.801,22.839  l5.288,1.29h11.308l5.288-1.29c1.183-0.288,28.527-7.029,63.873-21.619c31.984,17.922,62.381,31.34,82.524,39.536  c11.633,4.733,24.831,4.401,36.212-0.91c11.389-5.316,20.126-15.229,23.973-27.196c7.205-22.419-4.245-46.939-26.067-55.824  c-7.15-2.911-14.297-5.962-21.358-9.116C505.711,310.805,516.332,242.116,510.754,194.387z M16.363,196.155  c5.155-44.101,27.843-82.111,63.882-107.025c28.839-19.937,64.359-30.65,101.052-30.65c3.649,0,7.313,0.106,10.98,0.32  c21.506,1.252,41.893,6.164,60.595,14.597l2.365,1.067c8.068,3.845,38.047,19.901,61.896,55.958  c12.474,21.609,18.801,46.601,18.801,74.291c0,32.652-10.446,64.533-31.059,94.862c-5.024-4.505-9.395-8.759-13.164-12.673  c-16.489-17.126-24.488-30.713-27.477-36.488c7.679-15.188,11.576-30.545,11.576-45.702c0-18.307-4.392-34.302-13.035-47.569  c-2.551-5.86-18.736-37.086-74.088-38.323c-2.387-0.137-4.806-0.208-7.193-0.208c-46.012,0-98.623,26.45-105.411,84.524  c-5.632,48.183,22.111,90.953,82.459,127.121c0.331,0.198,0.669,0.396,1.002,0.594c-19.567,12.363-49.657,26.865-60.463,31.966  C21.48,305.169,11.176,240.529,16.363,196.155z M336.148,133.977c39.893,2.031,79.352,25.6,84.65,70.926  c4.874,41.702-20.414,79.484-75.164,112.297c-2.965,1.777-6.029,3.544-9.148,5.275c-6.735-4.663-13.146-9.399-19.15-14.149  c22.447-32.948,33.819-67.772,33.819-103.613C351.154,178.936,346.112,155.202,336.148,133.977z M260.586,204.711  c0,8.756-1.576,17.654-4.701,26.596c-2.974-8.931-4.475-17.831-4.475-26.596c0-10.072,1.538-19.235,4.588-27.39  C259.047,185.476,260.586,194.64,260.586,204.711z M193.091,307.29c-6.143,4.717-12.701,9.423-19.59,14.058  c-2.423-1.368-4.811-2.756-7.136-4.148c-54.75-32.813-80.039-70.595-75.164-112.297c5.436-46.516,46.618-68.902,84.645-70.918  c-9.963,21.223-15.003,44.953-15.003,70.729C160.842,240.131,171.686,274.606,193.091,307.29z M174.006,409.192  c-34.826,19.314-68.41,33.649-90.462,42.277c-7.851,3.073-16.36,2.749-23.963-0.911c-7.616-3.666-13.19-10.133-15.694-18.208  c-4.645-14.982,3.154-31.196,17.755-36.911c13.428-5.258,26.805-10.944,39.757-16.904l0,0c0.069-0.031,0.186-0.085,0.347-0.16  l11.512-5.296l-0.129-0.093c17.277-8.335,49.128-24.354,65.125-36.519c8.379-5.514,16.324-11.148,23.718-16.81  c6.721,8.466,20.486,24.507,42.002,43.762C219.766,381.325,176.634,407.595,174.006,409.192z M263.334,432.284l-3.511,0.856h-7.648  l-3.509-0.856c-1.077-0.263-23.643-5.832-54.128-17.857c16.213-10.09,44.048-27.791,61.221-40.818  c15.995,13.368,35.435,27.807,58.515,42.061C285.392,426.843,264.347,432.036,263.334,432.284z M441.715,395.153  c14.493,5.901,22.099,22.184,17.315,37.069c-2.592,8.065-8.246,14.479-15.92,18.061c-7.666,3.577-16.202,3.792-24.037,0.605  c-20.398-8.301-51.522-22.063-83.966-40.491c-84.486-48.884-124.287-104.152-125.471-105.817l-0.03-0.044  c-22.257-31.838-33.543-65.424-33.543-99.827c0-26.087,5.615-49.779,16.694-70.502c36.334,2.064,50.251,18.971,54.53,26.078  c-7.36,12.626-11.1,27.54-11.1,44.424c0,16.166,4.247,32.552,12.614,48.712c0.486,1.158,2.028,4.607,5.113,9.815l1.665,3.194  l0.134-0.246c14.541,23.156,54.968,72.594,152.339,114.233C419.058,385.582,430.383,390.539,441.715,395.153z M410.246,364.776  c-23.957-10.465-44.132-21.384-61.012-32.038c1.424-0.824,2.837-1.651,4.225-2.483c60.347-36.168,88.091-78.938,82.459-127.121  c-6.726-57.548-58.788-85.623-108.377-84.481c-18.357-26.503-39.458-42.558-53.387-51.147c14.428-4.858,29.693-7.782,45.569-8.707  c40.539-2.359,80.327,8.413,112.032,30.33c36.04,24.915,58.728,62.924,63.883,107.025  C500.897,241.172,490.193,306.687,410.246,364.776z" data-original="#000000" class="active-path" style="fill:#070300" data-old_color="#140A00"/><g>
	<path style="fill:#FEDAAA" d="M441.227,167.247l13.628-6.783c-19.768-39.718-58.276-55.424-59.906-56.073l-5.647,14.135   C389.646,118.667,424.12,132.876,441.227,167.247z" data-original="#FEDAAA" class=""/>
	<path style="fill:#FEDAAA" d="M449.624,193.484l15.028-2.427c-0.891-5.519-2.207-10.971-3.912-16.205l-14.474,4.714   C447.728,184.054,448.858,188.738,449.624,193.484z" data-original="#FEDAAA" class=""/>
	<path style="fill:#FEDAAA" d="M105.599,107.81l-3.198-6.907l-3.183-6.913c-1.593,0.734-39.225,18.439-56.883,59.138l13.964,6.058   C71.581,123.966,105.261,107.969,105.599,107.81z" data-original="#FEDAAA" class=""/>
	<path style="fill:#FEDAAA" d="M51.61,171.351l-14.315-5.174c-1.871,5.175-3.361,10.582-4.43,16.07l14.941,2.908   C48.726,180.436,50.006,175.791,51.61,171.351z" data-original="#FEDAAA" class=""/>
	<path style="fill:#FEDAAA" d="M221.296,266.712l-6.698,3.616l-6.7,3.612c0.563,1.044,14.063,25.862,37.851,50.228l10.892-10.634   c-22.137-22.673-35.111-46.388-35.344-46.816C221.297,266.714,221.296,266.713,221.296,266.712z" data-original="#FEDAAA" class=""/>
	<path style="fill:#FEDAAA" d="M256.642,334.968c4.022,3.367,8.138,6.521,12.234,9.376l8.702-12.489   c-3.729-2.599-7.486-5.479-11.164-8.559L256.642,334.968z" data-original="#FEDAAA" class=""/>
	<path style="fill:#FEDAAA" d="M305.194,250.339l8.702-12.489c-3.728-2.599-7.485-5.478-11.165-8.559l-9.771,11.672   C296.982,244.331,301.098,247.486,305.194,250.339z" data-original="#FEDAAA" class=""/>
	<path style="fill:#FEDAAA" d="M338.744,374.828c4.022,3.367,8.138,6.521,12.234,9.376l8.702-12.489   c-3.729-2.599-7.486-5.479-11.164-8.559L338.744,374.828z" data-original="#FEDAAA" class=""/>
	<path style="fill:#FEDAAA" d="M381.483,411.666c4.022,3.367,8.138,6.521,12.234,9.376l8.702-12.489   c-3.729-2.599-7.486-5.479-11.164-8.559L381.483,411.666z" data-original="#FEDAAA" class=""/>
	<path style="fill:#FEDAAA" d="M456.068,251.606c4.021,3.366,8.137,6.521,12.233,9.376l8.703-12.489   c-3.73-2.599-7.486-5.479-11.164-8.559L456.068,251.606z" data-original="#FEDAAA" class=""/>
	<path style="fill:#FEDAAA" d="M416.573,305.977c4.022,3.367,8.138,6.521,12.234,9.376l8.702-12.489   c-3.729-2.599-7.486-5.479-11.164-8.559L416.573,305.977z" data-original="#FEDAAA" class=""/>
	<path style="fill:#FEDAAA" d="M217.046,208.186c-3.728-2.599-7.485-5.478-11.165-8.559l-9.771,11.672   c4.023,3.367,8.139,6.521,12.234,9.375L217.046,208.186z" data-original="#FEDAAA" class=""/>
	<path style="fill:#FEDAAA" d="M198.583,353.658c-3.733-2.602-7.489-5.481-11.165-8.559l-9.772,11.671   c4.019,3.364,8.134,6.518,12.234,9.376L198.583,353.658z" data-original="#FEDAAA" class=""/>
	<path style="fill:#FEDAAA" d="M118.29,399.995l-9.772,11.671c4.021,3.366,8.137,6.521,12.233,9.376l8.703-12.489   C125.724,405.954,121.968,403.074,118.29,399.995z" data-original="#FEDAAA" class=""/>
	<path style="fill:#FEDAAA" d="M238.24,90.197c-3.729-2.599-7.486-5.479-11.164-8.559l-9.772,11.671   c4.022,3.367,8.138,6.521,12.234,9.376L238.24,90.197z" data-original="#FEDAAA" class=""/>
	<path style="fill:#FEDAAA" d="M300.008,141.787c-3.733-2.602-7.489-5.481-11.165-8.559l-9.772,11.671   c4.018,3.364,8.134,6.518,12.234,9.376L300.008,141.787z" data-original="#FEDAAA" class=""/>
	<path style="fill:#FEDAAA" d="M36.253,251.606c4.022,3.366,8.138,6.521,12.233,9.376l8.703-12.489   c-3.729-2.599-7.486-5.478-11.165-8.559L36.253,251.606z" data-original="#FEDAAA" class=""/>
	<path style="fill:#FEDAAA" d="M82.026,289.823l-9.771,11.672c4.023,3.367,8.139,6.521,12.234,9.375l8.702-12.489   C89.461,295.782,85.704,292.902,82.026,289.823z" data-original="#FEDAAA" class=""/>
</g></g> </svg>
